<svg xmlns="http://www.w3.org/2000/svg" data-name="Layer 1" viewBox="0 0 100 125" x="0px" y="0px"><title>All2</title><path d="M13,93.44a6.21,6.21,0,0,1-5.61-3.32,6.4,6.4,0,0,1,.76-7.33c0.8-1,1.74-2.09,2.79-3.16a25,25,0,0,0,5.58-8.75c-0.94-.64-1.9-1.31-2.83-2A35,35,0,0,1,2.53,55.06,28.31,28.31,0,0,1,.1,41.21,29.71,29.71,0,0,1,4.69,28C9.6,20.14,16.88,14.51,27,10.8a65.4,65.4,0,0,1,44.4-.69c9.73,3.26,17.09,8.34,22.5,15.54a29.44,29.44,0,0,1,6.12,19A29.82,29.82,0,0,1,92.4,63.16c-6.68,7.66-15.62,12.73-27.32,15.5a67.85,67.85,0,0,1-21.19,1.43A61.39,61.39,0,0,1,17,92.89c-0.84.18-1.64,0.29-2.41,0.4l-0.46.07A7.6,7.6,0,0,1,13,93.44ZM50.13,14.65a58.7,58.7,0,0,0-20.39,3.73C21.42,21.45,15.47,26,11.55,32.29S7,45.13,9.93,51.84a27.15,27.15,0,0,0,8.74,10.61c1,0.79,2.13,1.54,3.29,2.33l1.66,1.14,2.29,1.6-0.69,2.71a33.11,33.11,0,0,1-7.71,14.27A52.93,52.93,0,0,0,39,73.64,7,7,0,0,1,43.8,72,60.42,60.42,0,0,0,63.22,70.8c10-2.36,17.55-6.6,23.09-12.95C93.37,49.75,93.8,39,87.4,30.5c-4.4-5.84-10.49-10-18.61-12.73A58.47,58.47,0,0,0,50.13,14.65ZM43.09,80h0Z"/><text x="0" y="115" fill="#000000" font-size="5px" font-weight="bold" font-family="'Helvetica Neue', Helvetica, Arial-Unicode, Arial, Sans-serif">Created by i cons</text><text x="0" y="120" fill="#000000" font-size="5px" font-weight="bold" font-family="'Helvetica Neue', Helvetica, Arial-Unicode, Arial, Sans-serif">from the Noun Project</text></svg>